<svg xmlns="http://www.w3.org/2000/svg" width="64" height="64" viewBox="0 0 64 64">
  <polygon points="32,2 58,17 58,47 32,62 6,47 6,17" fill="#1a0606" stroke="#ff6644" stroke-width="2"/>
  <!-- Flexed bicep arm -->
  <path d="M18 44 L18 36 Q18 28 24 24 Q28 22 30 26 L32 30 Q34 34 38 32 Q42 30 44 26 Q46 22 44 18 Q42 14 38 16" fill="none" stroke="#ff6644" stroke-width="3" stroke-linecap="round"/>
  <!-- Fist -->
  <circle cx="38" cy="16" r="5" fill="#ff6644" opacity="0.6"/>
  <!-- Muscle highlight -->
  <path d="M26 26 Q30 22 32 28" fill="none" stroke="#ff8866" stroke-width="1.5" opacity="0.5"/>
  <!-- Heart/HP symbol -->
  <path d="M30 44 Q28 40 26 42 Q24 44 26 47 L30 50 L34 47 Q36 44 34 42 Q32 40 30 44Z" fill="#ff6644" opacity="0.5"/>
  <!-- +100 text -->
  <text x="32" y="58" text-anchor="middle" fill="#ff6644" font-family="monospace" font-size="6" opacity="0.5">+100 HP</text>
</svg>