<svg xmlns="http://www.w3.org/2000/svg" width="64" height="64" viewBox="0 0 64 64">
  <polygon points="32,2 58,17 58,47 32,62 6,47 6,17" fill="#041a06" stroke="#44ff44" stroke-width="2"/>
  <!-- Four-leaf clover -->
  <circle cx="28" cy="24" r="8" fill="#44ff44" opacity="0.7"/>
  <circle cx="36" cy="24" r="8" fill="#44ff44" opacity="0.7"/>
  <circle cx="28" cy="32" r="8" fill="#44ff44" opacity="0.7"/>
  <circle cx="36" cy="32" r="8" fill="#44ff44" opacity="0.7"/>
  <!-- Center -->
  <circle cx="32" cy="28" r="3" fill="#041a06"/>
  <!-- Stem -->
  <path d="M32 34 Q34 42 36 50 Q37 54 34 54" fill="none" stroke="#228822" stroke-width="2" stroke-linecap="round"/>
  <!-- Leaf veins -->
  <line x1="28" y1="18" x2="30" y2="26" stroke="#228822" stroke-width="0.8" opacity="0.5"/>
  <line x1="36" y1="18" x2="34" y2="26" stroke="#228822" stroke-width="0.8" opacity="0.5"/>
  <line x1="22" y1="32" x2="30" y2="30" stroke="#228822" stroke-width="0.8" opacity="0.5"/>
  <line x1="42" y1="32" x2="34" y2="30" stroke="#228822" stroke-width="0.8" opacity="0.5"/>
  <!-- Sparkles -->
  <path d="M14 14 L16 10 L18 14 L14 12 L18 12Z" fill="#44ff44" opacity="0.5"/>
  <path d="M48 16 L50 12 L52 16 L48 14 L52 14Z" fill="#44ff44" opacity="0.4"/>
  <path d="M12 42 L14 40 L16 42 L12 41 L16 41Z" fill="#44ff44" opacity="0.3"/>
</svg>