<svg xmlns="http://www.w3.org/2000/svg" width="64" height="64" viewBox="0 0 64 64">
  <polygon points="32,2 62,32 32,62 2,32" fill="#04061a" stroke="#66aaff" stroke-width="2"/>
  <!-- Screen/monitor -->
  <rect x="14" y="14" width="36" height="28" rx="3" fill="#0a1a2a" stroke="#66aaff" stroke-width="1"/>
  <!-- V.A.T.S. body outline -->
  <path d="M32 18 L32 20 M30 21 L34 21 M28 24 L36 24 L36 32 L34 36 L30 36 L28 32Z" fill="none" stroke="#66aaff" stroke-width="0.8" opacity="0.8"/>
  <!-- Target percentages -->
  <text x="22" y="22" fill="#66aaff" font-family="monospace" font-size="4" opacity="0.7">95%</text>
  <text x="38" y="28" fill="#66aaff" font-family="monospace" font-size="4" opacity="0.7">87%</text>
  <text x="22" y="34" fill="#66aaff" font-family="monospace" font-size="4" opacity="0.7">72%</text>
  <!-- Targeting brackets -->
  <rect x="26" y="20" width="12" height="14" rx="1" fill="none" stroke="#66aaff" stroke-width="0.8" stroke-dasharray="2 1"/>
  <!-- Antenna -->
  <line x1="32" y1="14" x2="32" y2="8" stroke="#66aaff" stroke-width="1.5"/>
  <circle cx="32" cy="7" r="2" fill="#66aaff" opacity="0.5"/>
  <!-- Signal waves -->
  <path d="M26 8 Q28 4 32 4 Q36 4 38 8" fill="none" stroke="#66aaff" stroke-width="0.8" opacity="0.4"/>
  <path d="M24 10 Q28 2 32 2 Q36 2 40 10" fill="none" stroke="#66aaff" stroke-width="0.5" opacity="0.3"/>
  <!-- Base -->
  <rect x="22" y="42" width="20" height="4" rx="1" fill="#334466"/>
  <!-- V.A.T.S. text -->
  <text x="32" y="54" text-anchor="middle" fill="#66aaff" font-family="monospace" font-size="6" font-weight="bold" opacity="0.6">V.A.T.S</text>
</svg>