<svg xmlns="http://www.w3.org/2000/svg" width="64" height="64" viewBox="0 0 64 64">
  <circle cx="32" cy="32" r="30" fill="#0e1a06" stroke="#669933" stroke-width="2"/>
  <!-- Biohazard symbol -->
  <circle cx="32" cy="30" r="4" fill="#0e1a06" stroke="#669933" stroke-width="1.5"/>
  <!-- Three crescents -->
  <path d="M32 26 A12 12 0 0 1 42.4 37" fill="none" stroke="#669933" stroke-width="3"/>
  <path d="M42.4 37 A12 12 0 0 1 21.6 37" fill="none" stroke="#669933" stroke-width="3"/>
  <path d="M21.6 37 A12 12 0 0 1 32 26" fill="none" stroke="#669933" stroke-width="3"/>
  <!-- Inner circles at vertices -->
  <circle cx="32" cy="20" r="3" fill="#0e1a06"/>
  <circle cx="41" cy="40" r="3" fill="#0e1a06"/>
  <circle cx="23" cy="40" r="3" fill="#0e1a06"/>
  <!-- Outer ring -->
  <circle cx="32" cy="32" r="18" fill="none" stroke="#669933" stroke-width="1.5" opacity="0.4"/>
  <!-- Drip/ooze at bottom -->
  <path d="M26 50 Q27 54 26 56" fill="none" stroke="#669933" stroke-width="1.5" stroke-linecap="round" opacity="0.5"/>
  <path d="M32 50 Q32 56 31 58" fill="none" stroke="#669933" stroke-width="1.5" stroke-linecap="round" opacity="0.5"/>
  <path d="M38 50 Q37 53 38 55" fill="none" stroke="#669933" stroke-width="1.5" stroke-linecap="round" opacity="0.5"/>
  <circle cx="26" cy="56" r="1.5" fill="#669933" opacity="0.4"/>
  <circle cx="31" cy="58" r="1.5" fill="#669933" opacity="0.4"/>
  <circle cx="38" cy="55" r="1.5" fill="#669933" opacity="0.4"/>
</svg>