<svg xmlns="http://www.w3.org/2000/svg" width="64" height="64" viewBox="0 0 64 64">
  <circle cx="32" cy="32" r="30" fill="#0e0e1a" stroke="#708090" stroke-width="2"/>
  <!-- Gear/cog with 8 teeth -->
  <path d="M32 10 L35 14 L38 12 L38 18 L42 17 L40 22 L44 23 L41 27 L44 30 L40 31
           L42 35 L38 34 L38 38 L35 37 L34 41 L32 38 L30 41 L29 37 L26 38 L26 34
           L22 35 L24 31 L20 30 L23 27 L20 23 L24 22 L22 17 L26 18 L26 12 L29 14 Z"
        fill="#708090" stroke="#8a9aaa" stroke-width="0.5"/>
  <!-- Inner gear detail -->
  <circle cx="32" cy="26" r="8" fill="#0e0e1a" stroke="#8a9aaa" stroke-width="1"/>
  <circle cx="32" cy="26" r="3" fill="#708090"/>
  <circle cx="32" cy="26" r="1.5" fill="#0e0e1a"/>
  <!-- Circuit lines below -->
  <line x1="20" y1="48" x2="28" y2="48" stroke="#708090" stroke-width="1" opacity="0.5"/>
  <line x1="28" y1="48" x2="28" y2="44" stroke="#708090" stroke-width="1" opacity="0.5"/>
  <line x1="36" y1="48" x2="44" y2="48" stroke="#708090" stroke-width="1" opacity="0.5"/>
  <line x1="36" y1="48" x2="36" y2="44" stroke="#708090" stroke-width="1" opacity="0.5"/>
  <line x1="30" y1="52" x2="34" y2="52" stroke="#708090" stroke-width="1" opacity="0.5"/>
  <circle cx="28" cy="48" r="1.5" fill="#708090" opacity="0.6"/>
  <circle cx="36" cy="48" r="1.5" fill="#708090" opacity="0.6"/>
  <circle cx="32" cy="52" r="1.5" fill="#708090" opacity="0.6"/>
</svg>