<svg xmlns="http://www.w3.org/2000/svg" width="64" height="64" viewBox="0 0 64 64">
  <circle cx="32" cy="32" r="30" fill="#101a08" stroke="#88cc44" stroke-width="2"/>
  <!-- Radioactive burst / explosion -->
  <!-- Outer rays -->
  <g stroke="#bcef82" stroke-width="2" stroke-linecap="round" fill="none">
    <line x1="32" y1="6" x2="32" y2="14"/>
    <line x1="32" y1="58" x2="32" y2="50"/>
    <line x1="6" y1="32" x2="14" y2="32"/>
    <line x1="58" y1="32" x2="50" y2="32"/>
    <line x1="14" y1="14" x2="20" y2="20"/>
    <line x1="50" y1="50" x2="44" y2="44"/>
    <line x1="14" y1="50" x2="20" y2="44"/>
    <line x1="50" y1="14" x2="44" y2="20"/>
  </g>
  <!-- Inner burst (jagged star) -->
  <path d="M32 18 L36 28 L46 30 L38 36 L42 46 L32 40 L22 46 L26 36 L18 30 L28 28 Z"
        fill="none" stroke="#bcef82" stroke-width="2" stroke-linejoin="round"/>
  <!-- Center glow -->
  <circle cx="32" cy="32" r="4" fill="#bcef82" opacity="0.4"/>
  <circle cx="32" cy="32" r="2" fill="#bcef82"/>
</svg>
